<?xml version="1.0" encoding="utf-8"?>
<!-- Generator: Adobe Illustrator 23.0.2, SVG Export Plug-In . SVG Version: 6.00 Build 0)  -->
<svg version="1.1" id="Layer_1" xmlns="http://www.w3.org/2000/svg" xmlns:xlink="http://www.w3.org/1999/xlink" x="0px" y="0px"
	 viewBox="0 0 841.9 595.3" style="enable-background:new 0 0 841.9 595.3;" xml:space="preserve">
<style type="text/css">
	.st0{fill:#5383D3;}
</style>
<path class="st0" d="M433.9,85.5c-1.3-0.2-2.7-0.4-4.1-0.5c-2.9-0.3-5.9-0.4-8.9-0.4c-2.2,0-4.5,0.1-6.7,0.3
	c-1.4,0.1-2.8,0.2-4.2,0.4c-42.8,5.2-76,41-76,84.1c0,16.6,4.9,32.1,13.4,45.2l10.2-11.4l0,0l1.2-1.3c12.8-14,35.9-23.4,62.2-23.4
	c26.3,0,49.4,9.4,62.3,23.4v-0.1l11.2,12.6c8.4-13.1,13.4-28.5,13.4-45C507.8,126.9,475.7,91.7,433.9,85.5z M393.2,153.4l-23.5,12.4
	c-4,2.1-8.9,0.6-11-3.4c-0.6-1.2-0.9-2.5-0.9-3.8c0-2.9,1.6-5.8,4.4-7.2l23.5-12.4c4-2.1,8.9-0.6,11,3.4c0.6,1.2,1,2.5,1,3.8
	C397.6,149.1,396,151.9,393.2,153.4z M483.3,161.7c-2.1,4-7,5.5-11,3.4l-23.5-12.4c-2.8-1.5-4.4-4.3-4.4-7.2c0-1.3,0.3-2.6,0.9-3.8
	c2.1-4,7-5.5,11-3.4l23.5,12.4c2.8,1.5,4.4,4.3,4.4,7.2C484.2,159.2,483.9,160.5,483.3,161.7z"/>
<image style="display:none;overflow:visible;" width="512" height="512" xlink:href="F8484258.png"  transform="matrix(1 0 0 1 165 41.276)">
</image>
<g>
	<path class="st0" d="M369.9,535.9h17.7c13.8,0,25-11.2,25-25h-42.7V535.9z"/>
	<path class="st0" d="M275.6,253.3L275.6,253.3l0-64h0c-13.7,0-24.9,11.1-24.9,24.9v14.3C250.8,242.2,261.9,253.3,275.6,253.3z"/>
	<path class="st0" d="M320.2,279.6h201.5c14.7,0,26.7-11.9,26.7-26.7v-66.4c0-68.5-54.1-124.4-121.8-127.3
		c-72.7-3.1-133,56.1-133,128.8v64.8C293.5,267.6,305.5,279.6,320.2,279.6z M421,67.6c57.4,0,103.9,45.5,103.9,101.7
		c0,30.1-13.4,57.2-34.7,75.8C471.8,261.3,447.5,271,421,271c-26.6,0-50.9-9.8-69.2-25.9c-21.3-18.6-34.7-45.7-34.7-75.8
		C317.1,113.1,363.6,67.6,421,67.6z"/>
	<path class="st0" d="M386.9,247.3c23,9.8,45.4,6.1,53.4,4.3c23.7-5.2,37.1-18.2,41.5-22.9l0.1,0c0,0,0,0,0-0.1
		c0.1-0.1,0.2-0.2,0.3-0.3l-0.4,0c-4-6.1-12.4-17.1-26.8-24.8c-23-12.3-45.4-7.6-53.4-5.4c-24.3,6.7-37.8,23.8-41.8,29.3l0.3,0
		C363.8,232.1,372.2,241.1,386.9,247.3z"/>
	<polygon class="st0" points="472.1,489.4 472.1,459.5 429.3,459.5 429.3,489.4 429.3,493.3 472.1,493.3 	"/>
	<path class="st0" d="M454.4,535.9h17.7v-25h-42.7C429.3,524.7,440.5,535.9,454.4,535.9z"/>
	<path class="st0" d="M591.2,228.5v-14.3c0-13.7-11.1-24.9-24.9-24.9h0v64h0C580.1,253.3,591.2,242.2,591.2,228.5z"/>
	
		<ellipse transform="matrix(0.7071 -0.7071 0.7071 0.7071 -105.2581 417.2023)" class="st0" cx="451" cy="335.7" rx="6.8" ry="6.8"/>
	<rect x="352.4" y="391.2" class="st0" width="137.2" height="17"/>
	<path class="st0" d="M352.4,432.5c0,5.4,4.4,9.8,9.8,9.8h117.6c5.4,0,9.8-4.4,9.8-9.8v-7.2H352.4V432.5z"/>
	<polygon class="st0" points="369.9,489.4 369.9,493.3 412.7,493.3 412.7,489.4 412.7,459.5 369.9,459.5 	"/>
	<path class="st0" d="M613.5,420.8l-7.2-4.2c-0.1-11.2-7.4-20.8-17.5-24.1V375h-0.1v-15.7c0-25.2-20.5-45.6-45.6-45.6h-53.4v-16.1
		H352.4v16.1H299c-25.2,0-45.6,20.5-45.6,45.6V375v17.4c-10.2,3.4-17.5,12.9-17.5,24.3c0,0.1,0,0.2,0,0.4l-6.3,3.7
		c-6.5,3.8-10.6,10.8-10.6,18.3v22.3h16v-22.3c0-1.8,1-3.6,2.6-4.5l3.7-2.1c0.9,1.2,2,2.3,3.2,3.4l0,0c4.5,4,10.4,6.4,16.9,6.4
		c6.5,0,12.4-2.4,16.9-6.4l0,0c1.3-1.1,2.5-2.4,3.5-3.8l4.3,2.5c1.6,0.9,2.6,2.7,2.6,4.5v22.3h16v-22.3c0-7.5-4.1-14.6-10.6-18.3
		l-7.2-4.2c-0.1-11.2-7.4-20.8-17.5-24.1V375v-15.7c0-16.3,13.3-29.6,29.6-29.6h53.4v44.4h137.2v-44.4H543
		c16.3,0,29.6,13.3,29.6,29.6V375h0.1v17.4c-10.2,3.4-17.5,12.9-17.5,24.3c0,0.1,0,0.2,0,0.4l-6.3,3.7c-6.5,3.8-10.6,10.8-10.6,18.3
		v22.3h16v-22.3c0-1.8,1-3.6,2.6-4.5l3.7-2.1c0.9,1.2,2,2.3,3.2,3.4l0,0c4.5,4,10.4,6.4,16.9,6.4c6.5,0,12.4-2.4,16.9-6.4l0,0
		c1.3-1.1,2.5-2.4,3.5-3.8l4.3,2.5c1.6,0.9,2.6,2.7,2.6,4.5v22.3h16v-22.3C624.1,431.6,620,424.6,613.5,420.8z M270.9,416.7
		c0,5.3-4.3,9.5-9.5,9.5c-5.3,0-9.5-4.3-9.5-9.5c0-5.3,4.3-9.5,9.5-9.5C266.6,407.2,270.9,411.5,270.9,416.7z M451.4,356.8h-0.8
		c-11.7,0-21.1-9.5-21.1-21.1c0-5.8,2.4-11.1,6.2-14.9c3.8-3.8,9.1-6.2,14.9-6.2h0.8c11.7,0,21.1,9.5,21.1,21.1
		S463,356.8,451.4,356.8z M580.7,426.3c-5.3,0-9.5-4.3-9.5-9.5c0-5.3,4.3-9.5,9.5-9.5c5.3,0,9.5,4.3,9.5,9.5
		C590.3,422,586,426.3,580.7,426.3z"/>
</g>
</svg>
