<?xml version="1.0" encoding="utf-8"?>
<!-- Generator: Adobe Illustrator 23.0.2, SVG Export Plug-In . SVG Version: 6.00 Build 0)  -->
<svg version="1.1" xmlns="http://www.w3.org/2000/svg" xmlns:xlink="http://www.w3.org/1999/xlink" x="0px" y="0px"
	 viewBox="0 0 512 512" style="enable-background:new 0 0 512 512;" xml:space="preserve">
<style type="text/css">
	.st0{fill:#EBA72E;}
	.st1{fill:#F0C6A4;}
	.st2{fill:#60B8D1;}
	.st3{fill:#E0B999;}
	.st4{fill:#F7CCA9;}
	.st5{fill:#FFB632;}
	.st6{fill:#596063;}
	.st7{fill:#C2A186;}
	.st8{fill:#EB423F;stroke:#000000;stroke-width:14;stroke-miterlimit:10;}
	.st9{fill:#E9EEF2;}
	.st10{fill:#050505;}
</style>
<g id="Flat">
	<path class="st0" d="M152,56L152,56v112l0,0h-48l0,0v-64C104,77.5,125.5,56,152,56z"/>
	<path class="st0" d="M408,168h-48l0,0V56l0,0c26.5,0,48,21.5,48,48V168L408,168z"/>
	<circle class="st1" cx="136" cy="200" r="48"/>
	<circle class="st1" cx="376" cy="200" r="48"/>
	<path class="st2" d="M384,376h-80v-48h-96v48h-80c-35.3,0-64,28.7-64,64v48h384v-48C448,404.7,419.3,376,384,376z"/>
	<path class="st3" d="M160,384h-32v-80h16c8.8,0,16,7.2,16,16V384z"/>
	<path class="st4" d="M92.3,242.9c2.2-6.5,8.3-10.9,15.2-10.9H128l-16,48v32l48,64v112H96v-96l-16-48v-64L92.3,242.9z"/>
	<path class="st3" d="M352,384h32v-80h-16c-8.8,0-16,7.2-16,16V384z"/>
	<path class="st4" d="M419.6,242.9c-2.2-6.5-8.3-10.9-15.2-10.9H384l16,48v32l-48,64v112h64v-96l16-48v-64L419.6,242.9z"/>
	<path class="st4" d="M312,328H200c-35.3,0-64-28.7-64-64V72h240v192C376,299.3,347.3,328,312,328z"/>
	<path class="st5" d="M376,56v32H152c-0.6,0-1.2,0-1.8,0c-1.2,0-2.5-0.1-3.7-0.2C113.4,84.9,88,57.2,88,24h256
		C361.7,24,376,38.3,376,56z"/>
	<g>
		<path class="st0" d="M192,88h-40c-0.6,0-1.2,0-1.8,0c-3.4-2.9-6.6-6.1-9.5-9.5C127.5,63,120,43.2,120,24h16
			c0,15.5,6.1,31.5,16.8,44.1c10.5,12.3,23.7,19.3,37.3,19.9C190.8,88,191.4,88,192,88z"/>
		<path class="st0" d="M232,88h-41.8c0,0,0,0-0.1,0c-3.4-2.9-6.6-6.1-9.5-9.5C167.5,63,160,43.2,160,24h16
			c0,15.5,6.1,31.5,16.8,44.1c10.5,12.3,23.7,19.3,37.4,19.9C230.8,88,231.4,88,232,88z"/>
		<path class="st0" d="M272,88h-41.8c0,0,0,0-0.1,0c-3.4-2.9-6.6-6.1-9.5-9.5C207.5,63,200,43.2,200,24h16
			c0,15.5,6.1,31.5,16.8,44.1c10.5,12.3,23.7,19.3,37.4,19.9C270.8,88,271.4,88,272,88z"/>
		<path class="st0" d="M312,88h-41.8c0,0,0,0,0,0c-3.4-2.9-6.6-6.1-9.5-9.5C247.5,63,240,43.2,240,24h16c0,15.5,6.1,31.5,16.8,44.1
			c10.5,12.3,23.7,19.3,37.4,19.9C310.8,88,311.4,88,312,88L312,88z"/>
		<path class="st0" d="M352,88h-41.8c0,0,0,0,0,0c-3.4-2.9-6.6-6.1-9.5-9.5C287.5,63,280,43.2,280,24h16c0,15.5,6.1,31.5,16.8,44.1
			c10.1,11.9,22.8,18.9,36,19.8C349.9,88,350.9,88,352,88L352,88z"/>
		<path class="st0" d="M376,85.7V88h-27c0,0-0.1-0.1-0.1-0.1C331.7,72.8,320,48.5,320,24h16C336,51.1,354.1,78.7,376,85.7z"/>
	</g>
	<path class="st6" d="M216,152h-48c-4.4,0-8-3.6-8-8s3.6-8,8-8h48c4.4,0,8,3.6,8,8S220.4,152,216,152z"/>
	<path class="st6" d="M344,152h-48c-4.4,0-8-3.6-8-8s3.6-8,8-8h48c4.4,0,8,3.6,8,8S348.4,152,344,152z"/>
	<circle class="st6" cx="200" cy="192" r="16"/>
	<path class="st7" d="M256,240c-13.2,0-24-10.8-24-24c0-4.4,3.6-8,8-8s8,3.6,8,8s3.6,8,8,8s8-3.6,8-8s3.6-8,8-8s8,3.6,8,8
		C280,229.2,269.2,240,256,240z"/>
	<circle class="st6" cx="312" cy="192" r="16"/>
	<path class="st7" d="M288,288c-4.4,0-8-3.6-8-8c0-13.3-10.7-24-24-24c-13.3,0-24,10.7-24,24c0,4.4-3.6,8-8,8s-8-3.6-8-8
		c0-22.1,17.9-40,40-40s40,17.9,40,40C296,284.4,292.4,288,288,288z"/>
	<path class="st1" d="M304,328v48c0,17.7-14.3,32-32,32h-32c-17.7,0-32-14.3-32-32v-48H304z"/>
	<circle class="st8" cx="256" cy="424" r="64"/>
	<path class="st9" d="M267.3,424l18.3-18.3c3.1-3.1,3.1-8.2,0-11.3s-8.2-3.1-11.3,0l0,0L256,412.7l-18.3-18.3
		c-3.1-3.1-8.2-3.1-11.3,0s-3.1,8.2,0,11.3l0,0l18.3,18.3l-18.3,18.3c-3.1,3.1-3.1,8.2,0,11.3s8.2,3.1,11.3,0l18.3-18.3l18.3,18.3
		c3.1,3.1,8.2,3.1,11.3,0s3.1-8.2,0-11.3L267.3,424z"/>
	<g>
		<path class="st10" d="M200,321c-13.7,0-27-5-37.4-14l-3-2.6l-2.6-3c-9-10.4-14-23.7-14-37.4v-23h-7c-3.7,0-7.3-0.5-10.9-1.5
			l-6.4-1.8L105,278.9v35.5l30,40V311h9c1.5,0,3,0.4,4.3,1.1l2.3,1.3l1.3,2.3c0.7,1.3,1.1,2.8,1.1,4.3v63h62v-62H200z M121,297v15.3
			l-2-2.7v-28.5l8.9-26.7c0.4,0,0.7,0.1,1.1,0.1v9.5c0,11.6,2.8,22.9,8.2,33H121z M201,369h-34v-42.2c10.1,5.3,21.4,8.2,33,8.2h1
			V369z M393.3,237.8l-6.4,1.8c-3.6,1-7.2,1.5-10.9,1.5h-7v23c0,13.7-5,27-14,37.4l-2.6,3l-3,2.6c-10.4,9-23.7,14-37.4,14h-15v62h62
			v-63c0-1.5,0.4-3,1.1-4.3l1.3-2.3l2.3-1.3c1.3-0.7,2.8-1.1,4.3-1.1h9v43.3l30-40v-35.5L393.3,237.8z M345,369h-34v-34h1
			c11.6,0,22.9-2.8,33-8.2V369z M393,309.7l-2,2.7V297h-16.2c5.3-10.1,8.2-21.4,8.2-33v-9.5c0.4,0,0.7-0.1,1.1-0.1l8.9,26.7V309.7z
			 M393.3,237.8l-6.4,1.8c-3.6,1-7.2,1.5-10.9,1.5h-7v23c0,13.7-5,27-14,37.4l-2.6,3l-3,2.6c-10.4,9-23.7,14-37.4,14h-15v62h62v-63
			c0-1.5,0.4-3,1.1-4.3l1.3-2.3l2.3-1.3c1.3-0.7,2.8-1.1,4.3-1.1h9v43.3l30-40v-35.5L393.3,237.8z M345,369h-34v-34h1
			c11.6,0,22.9-2.8,33-8.2V369z M393,309.7l-2,2.7V297h-16.2c5.3-10.1,8.2-21.4,8.2-33v-9.5c0.4,0,0.7-0.1,1.1-0.1l8.9,26.7V309.7z
			 M162.6,307l-3-2.6l-2.6-3c-9-10.4-14-23.7-14-37.4v-23h-7c-3.7,0-7.3-0.5-10.9-1.5l-6.4-1.8L105,278.9v35.5l30,40V311h9
			c1.5,0,3,0.4,4.3,1.1l2.3,1.3l1.3,2.3c0.7,1.3,1.1,2.8,1.1,4.3v63h62v-62h-15C186.3,321,173,316,162.6,307z M121,297v15.3l-2-2.7
			v-28.5l8.9-26.7c0.4,0,0.7,0.1,1.1,0.1v9.5c0,11.6,2.8,22.9,8.2,33H121z M201,369h-34v-42.2c10.1,5.3,21.4,8.2,33,8.2h1V369z
			 M426.4,383l12.6-37.9v-66.3l-12.7-38.1c-1.1-3.4-3-6.4-5.4-8.9c6.6-9.3,10.2-20.3,10.2-31.8c0-14.5-5.8-28.5-16-38.8V104
			c0-21.6-12.7-41.1-32-50c-1-20.6-18.1-37-39-37H81v7c0,20,8.6,39.2,23.3,52.6C99.5,84.9,97,94.3,97,104v57.2
			c-10.2,10.3-16,24.2-16,38.8c0,11.5,3.6,22.6,10.2,31.8c-2.4,2.5-4.3,5.5-5.4,8.9L73,278.9v66.3L85.6,383
			c-18,13.4-28.6,34.3-28.6,57v55h26.7c3.9,0,7-3.1,7-7l0,0c0-3.9-3.1-7-7-7H71v-41c0-19.7,10-37.7,26.7-48.3l4.7-2.9l-15.3-46
			v-61.7l12-36c0.8-2.5,2.7-4.5,5.1-5.5l9.4-3.9l-7.1-7.4C99.1,220.7,95,210.6,95,200c0-11.6,5-22.8,13.7-30.5l2.3-2.1V104
			c0-9,2.8-17.5,8.2-24.6l4.2-5.6l-5.6-4.2C105.4,60.3,97.3,46.2,95.4,31H344c13.8,0,25,11.2,25,25v7.7l4.7,1.7
			C390,71.1,401,86.7,401,104v63.4l2.3,2.1c8.7,7.8,13.7,18.9,13.7,30.5c0,10.6-4.1,20.7-11.4,28.4l-7.1,7.4l9.4,3.9
			c2.4,1,4.3,3,5.1,5.5l12,36v61.7l-15.3,46l4.7,2.9C431,402.3,441,420.3,441,440v41H135.8c-3.9,0-7,3.1-7,7l0,0c0,3.9,3.1,7,7,7
			H455v-55C455,417.3,444.4,396.4,426.4,383z M407,314.3v-35.5l-13.7-41.1l-6.4,1.8c-3.6,1-7.2,1.5-10.9,1.5h-7v23
			c0,13.7-5,27-14,37.4l-2.6,3l-3,2.6c-10.4,9-23.7,14-37.4,14h-15v62h62v-63c0-1.5,0.4-3,1.1-4.3l1.3-2.3l2.3-1.3
			c1.3-0.7,2.8-1.1,4.3-1.1h9v43.3L407,314.3z M345,369h-34v-34h1c11.6,0,22.9-2.8,33-8.2V369z M374.8,297c5.3-10.1,8.2-21.4,8.2-33
			v-9.5c0.4,0,0.7-0.1,1.1-0.1l8.9,26.7v28.5l-2,2.7V297H374.8z M136,241c-3.7,0-7.3-0.5-10.9-1.5l-6.4-1.8L105,278.9v35.5l30,40
			V311h9c1.5,0,3,0.4,4.3,1.1l2.3,1.3l1.3,2.3c0.7,1.3,1.1,2.8,1.1,4.3v63h62v-62h-15c-13.7,0-27-5-37.4-14l-3-2.6l-2.6-3
			c-9-10.4-14-23.7-14-37.4v-23H136z M167,326.8c10.1,5.3,21.4,8.2,33,8.2h1v34h-34V326.8z M121,297v15.3l-2-2.7v-28.5l8.9-26.7
			c0.4,0,0.7,0.1,1.1,0.1v9.5c0,11.6,2.8,22.9,8.2,33H121z"/>
	</g>
</g>
<g id="Layer_2">
</g>
</svg>
